<svg xmlns="http://www.w3.org/2000/svg" viewBox="0 0 128 128" role="img" aria-labelledby="title desc">
  <title id="title">NLtimer icon</title>
  <desc id="desc">A rounded timer icon with natural-language lines and a soft Material-inspired palette.</desc>
  <defs>
    <linearGradient id="bg" x1="18" y1="14" x2="110" y2="116" gradientUnits="userSpaceOnUse">
      <stop offset="0" stop-color="#EADDFF"/>
      <stop offset="0.48" stop-color="#F9DEDC"/>
      <stop offset="1" stop-color="#D0E8FF"/>
    </linearGradient>
    <linearGradient id="face" x1="36" y1="32" x2="92" y2="96" gradientUnits="userSpaceOnUse">
      <stop offset="0" stop-color="#d1c8fd"/>
      <stop offset="1" stop-color="#eaedff"/>
    </linearGradient>
    <filter id="shadow" x="-20%" y="-20%" width="140%" height="140%" color-interpolation-filters="sRGB">
      <feDropShadow dx="0" dy="8" stdDeviation="8" flood-color="#21005D" flood-opacity="0.18"/>
    </filter>
  </defs>

  <rect width="128" height="128" rx="30" fill="url(#bg)"/>
  <path
    d="M36 24C26 35 20 49 20 64c0 32 26 58 58 58 16 0 30-6 40-17-10 5-22 8-35 8-37 0-68-30-68-68 0-7 1-14 3-21z"
    fill="#FFFFFF"
    opacity="0.32"/>

  <g fill="none" stroke-linecap="round" stroke-linejoin="round">

    <path d="M83 40h25" stroke="#d62805" stroke-width="6"/>
    <path d="M83 50h29" stroke="#d62805" stroke-width="6" opacity="0.78"/>
    <path d="M83 60h30" stroke="#d62805" stroke-width="6" opacity="0.63"/>
  </g>

  <g filter="url(#shadow)">
    <circle cx="64" cy="68" r="38" fill="url(#face)"/>
    <circle cx="64" cy="68" r="31" fill="none" stroke="#6750A4" stroke-width="5" stroke-linecap="round"/>
    <path d="M64 43v9" stroke="#6750a4" stroke-width="5" stroke-linecap="round"/>
    <path d="M64 84v9" stroke="#6750A4" stroke-width="5" stroke-linecap="round"/>
    <path d="M39 68h9" stroke="#6750A4" stroke-width="5" stroke-linecap="round"/>
    <path d="M80 68h9" stroke="#6750A4" stroke-width="5" stroke-linecap="round"/>
    <path d="M64 68V53" stroke="#21005D" stroke-width="6" stroke-linecap="round"/>
    <path d="M64 68l14 9" stroke="#21005D" stroke-width="6" stroke-linecap="round"/>
    <circle cx="64" cy="68" r="5" fill="#7D5260"/>
  </g>

 
</svg>
